<svg width="81" height="30" viewBox="0 0 81 30" fill="none" xmlns="http://www.w3.org/2000/svg">
<path d="M79.7904 0.803494L78.9869 0L75.7729 3.21398L73.9913 4.99564L73.3275 5.65939L67.6681 11.3188L64.7686 8.41922L61.869 5.51965L61.1354 6.25328L60.4017 7.02184L64.0699 10.69L67.7729 14.393L74.1659 8L76.0524 6.11354L77.7991 4.36681L80.5939 1.60699L79.7904 0.803494Z" fill="#F15A2A"/>
<path d="M0 24.4192L1.85153 23.2664C2.37555 25.4323 3.49345 27.2838 5.869 27.2838C7.51092 27.2838 8.83843 26.3057 8.83843 24.2096C8.83843 22.1135 7.02183 21.2052 4.8559 20.1921C2.82969 19.214 1.04804 17.8515 1.04804 15.2664C1.04804 12.6812 3.00437 10.8297 5.58952 10.8297C8.1048 10.8297 9.43231 12.0175 10.2358 13.7642L8.38428 14.917C7.75546 13.345 6.67249 12.8908 5.58952 12.8908C4.15721 12.8908 3.24891 13.9389 3.24891 15.0917C3.24891 17.048 5.03057 17.8515 6.9869 18.7249C9.25764 19.7729 11.1441 21.1354 11.1441 24.0349C11.1441 27.2489 8.9083 29.31 5.869 29.31C2.75983 29.345 0.489083 27.1092 0 24.4192Z" fill="#4999D4"/>
<path d="M24.6292 22.952H15.0222C15.127 25.5371 16.4894 27.4236 18.865 27.4236C20.7165 27.4236 21.6947 26.655 22.603 24.8734L24.4196 25.6419C23.1619 28.1921 21.4851 29.31 18.83 29.31C15.0571 29.31 12.8912 26.1659 12.8912 22.6026C12.8912 18.9694 15.0222 15.8603 18.83 15.8603C22.4982 15.8603 24.6641 18.655 24.6641 22.0087V22.952H24.6292ZM22.4632 21.1004C22.1488 19.1441 20.9611 17.7817 18.83 17.7817C17.1183 17.7817 15.651 18.8646 15.1969 21.1004H22.4632Z" fill="#4999D4"/>
<path d="M26.9694 10.8297H29.1004V29.1354H26.9694V10.8297Z" fill="#4999D4"/>
<path d="M43.0393 22.952H33.4323C33.5371 25.5371 34.8995 27.4236 37.2751 27.4236C39.1266 27.4236 40.1048 26.655 41.0131 24.8734L42.8297 25.6419C41.572 28.1921 39.8952 29.31 37.2401 29.31C33.4672 29.31 31.3013 26.1659 31.3013 22.6026C31.3013 18.9694 33.4323 15.8603 37.2401 15.8603C40.9083 15.8603 43.0742 18.655 43.0742 22.0087V22.952H43.0393ZM40.8733 21.1004C40.5589 19.1441 39.3711 17.7817 37.2401 17.7817C35.5283 17.7817 34.0611 18.8646 33.607 21.1004H40.8733Z" fill="#4999D4"/>
<path d="M44.6463 22.6026C44.6463 19.1092 46.6375 15.8603 50.6201 15.8603C53.2751 15.8603 55.1616 17.048 56.0699 19.4934L54.1485 20.2271C53.4847 18.655 52.3668 17.7467 50.6201 17.7467C48.0699 17.7467 46.8821 19.8777 46.8821 22.5677C46.8821 25.2227 48.0699 27.3886 50.6201 27.3886C52.3668 27.3886 53.4498 26.5153 54.1485 24.9083L56.0699 25.6419C55.1266 28.0524 53.2751 29.2751 50.6201 29.2751C46.6375 29.345 44.6463 26.0961 44.6463 22.6026Z" fill="#4999D4"/>
<path d="M59.0043 25.1528V18.0262H56.8034V16.1048H59.0043V12.1921L61.1353 10.8297V16.1048H64.6287V18.0262H61.1353V25.3275C61.1353 26.8297 61.834 27.4585 62.9519 27.4585C63.4409 27.4585 63.965 27.3886 64.454 27.1092L65.013 28.9258C64.3492 29.2751 63.5458 29.3799 62.7772 29.3799C60.5065 29.345 59.0043 28.0524 59.0043 25.1528Z" fill="#4999D4"/>
<path d="M65.7818 25.8166L66.2359 25.572L66.6901 25.3275L67.1442 25.083L67.5984 24.8384C67.7381 25.2227 67.8779 25.572 68.0525 25.8864C68.2272 26.2009 68.4368 26.4803 68.6814 26.6899C68.9259 26.8995 69.2054 27.1092 69.5547 27.214C69.8691 27.3537 70.2534 27.3886 70.6726 27.3886C70.987 27.3886 71.2665 27.3537 71.5111 27.2489C71.7556 27.179 72.0001 27.0393 72.1748 26.8646C72.3495 26.6899 72.4892 26.4803 72.594 26.2358C72.6988 25.9913 72.7338 25.7118 72.7338 25.3974C72.7338 25.083 72.6639 24.8384 72.5242 24.5939C72.3844 24.3493 72.1748 24.1397 71.9303 23.9651C71.6857 23.7904 71.3713 23.6157 71.022 23.441C70.6726 23.2664 70.2884 23.1266 69.9041 22.9869C69.4499 22.8122 68.9958 22.6375 68.6115 22.4279C68.2272 22.2183 67.8779 21.9738 67.5984 21.6594C67.3189 21.345 67.0744 21.0306 66.9346 20.6463C66.76 20.262 66.6901 19.8078 66.6901 19.2838C66.6901 18.7598 66.7949 18.3057 66.9696 17.8515C67.1442 17.3974 67.4237 17.048 67.7731 16.7336C68.1224 16.4192 68.5067 16.1747 68.9608 16.0349C69.415 15.8602 69.939 15.7904 70.463 15.7904C70.8822 15.7904 71.3015 15.8253 71.6508 15.9301C72.0351 16 72.3495 16.1397 72.6639 16.3144C72.9783 16.4891 73.2578 16.6987 73.5373 16.9432C73.7818 17.1878 74.0264 17.5022 74.236 17.8166L73.8866 18.131L73.5373 18.4454L73.1879 18.7598L72.8386 19.0742C72.6639 18.8297 72.4892 18.6201 72.3146 18.4454C72.1399 18.2707 71.9303 18.131 71.7556 18.0262C71.5809 17.9214 71.3364 17.8515 71.1268 17.7816C70.9172 17.7467 70.6726 17.7118 70.4281 17.7118C70.1835 17.7118 69.9739 17.7467 69.7643 17.8166C69.5547 17.8864 69.3801 17.9912 69.2054 18.131C69.0307 18.2707 68.9259 18.4454 68.8211 18.6201C68.7163 18.8297 68.6814 19.0393 68.6814 19.2838C68.6814 19.5284 68.7163 19.738 68.856 19.9476C68.9608 20.1572 69.1355 20.3319 69.3451 20.5065C69.5547 20.6812 69.8691 20.8559 70.2534 21.0306C70.6377 21.2052 71.0569 21.3799 71.5809 21.5895C72.0001 21.7292 72.4194 21.9388 72.8036 22.1485C73.1879 22.3581 73.5373 22.6375 73.8167 22.917C74.0962 23.1965 74.3408 23.5808 74.5154 23.9651C74.6901 24.3493 74.76 24.8035 74.76 25.2926C74.76 25.9214 74.6552 26.4454 74.4456 26.9345C74.236 27.4236 73.9565 27.8428 73.6071 28.1921C73.2578 28.5415 72.8036 28.786 72.2796 28.9607C71.7556 29.1354 71.1966 29.2402 70.5678 29.2402C69.8342 29.2402 69.2054 29.1354 68.6464 28.9258C68.0875 28.7161 67.6333 28.4367 67.2141 28.1223C66.7949 27.8078 66.4805 27.3886 66.2359 26.9694C66.0962 26.6899 65.8866 26.2358 65.7818 25.8166Z" fill="#4999D4"/>
</svg>
