<svg width="102" height="51" viewBox="0 0 102 51" fill="none" xmlns="http://www.w3.org/2000/svg">
<path d="M90.7905 5.80349L89.987 5L86.773 8.21397L84.9914 9.99563L84.3276 10.6594L78.6682 16.3188L75.7687 13.4192L72.8691 10.5197L72.1355 11.2533L71.4019 12.0218L75.07 15.69L78.773 19.393L85.166 13L87.0525 11.1135L88.7992 9.36681L91.594 6.60699L90.7905 5.80349Z" fill="#F15A2A"/>
<path d="M25.9519 37.2445L24.2401 36.7555L22.9475 41.262L22.9126 41.3668L23.8209 41.6463L24.3449 39.8297L25.1484 40.0742C25.6026 40.214 26.0218 40.179 26.3362 40.0044C26.6506 39.8297 26.8951 39.5153 26.9999 39.0961C27.1047 38.6769 27.1047 38.2926 26.9301 37.9782C26.7205 37.5939 26.406 37.3493 25.9519 37.2445ZM25.6724 38.083C26.0567 38.1878 26.1615 38.4323 26.0567 38.7817C25.9519 39.131 25.7074 39.2707 25.358 39.1659L24.5895 38.9563L24.9039 37.8734L25.6724 38.083Z" fill="#F15A2A"/>
<path d="M30.5634 40.214L28.8516 39.8297L29.2359 38.083L28.2926 37.8734L27.2795 42.5546L28.1878 42.7642L28.642 40.7031L30.3887 41.0874L29.9346 43.1485L30.8429 43.3581L31.8909 38.6419L30.9477 38.4323L30.5634 40.214Z" fill="#F15A2A"/>
<path d="M35.1049 39.131C34.511 39.0262 33.9172 39.166 33.463 39.5153C32.9739 39.8996 32.6595 40.4935 32.5198 41.2271C32.2752 42.9039 33.2534 43.8122 34.3713 43.9869C34.4761 43.9869 34.6158 44.0219 34.7207 44.0219C35.6988 44.0219 36.7119 43.393 36.9215 41.8908C37.0263 41.1223 36.8866 40.4935 36.5372 39.9695C36.2228 39.5153 35.6988 39.2009 35.1049 39.131ZM35.9783 41.7511C35.8036 42.9039 35.1049 43.1834 34.511 43.1136C33.9172 43.0088 33.3233 42.5197 33.4979 41.3668C33.5678 40.8777 33.7774 40.4935 34.0569 40.2489C34.2665 40.0743 34.511 40.0044 34.7905 40.0044C34.8604 40.0044 34.9303 40.0044 35.0001 40.0044C35.3495 40.0393 35.594 40.214 35.8036 40.4585C35.9783 40.7729 36.0831 41.2271 35.9783 41.7511Z" fill="#F15A2A"/>
<path d="M37.655 40.4236L38.9476 40.5633L38.5633 44.476L39.5066 44.5459L39.8908 40.6681L41.2183 40.7729L41.2882 39.8996L37.7598 39.5502L37.655 40.4236Z" fill="#F15A2A"/>
<path d="M44.0133 39.9694C43.3845 39.9694 42.8255 40.1441 42.4063 40.5284C41.9521 40.9476 41.6727 41.5764 41.6377 42.345C41.5679 44.0568 42.6508 44.8603 43.7338 44.8952C43.7687 44.8952 43.8037 44.8952 43.8386 44.8952C44.3976 44.8952 44.9216 44.6856 45.3059 44.3362C45.76 43.917 46.0395 43.2882 46.0744 42.5196C46.2142 40.8428 45.1312 40.0393 44.0133 39.9694ZM43.8037 43.9869C43.4543 43.9869 43.1748 43.8472 42.9652 43.6026C42.7207 43.3231 42.581 42.9039 42.6159 42.345C42.6508 41.2271 43.2797 40.8428 43.8735 40.8428C43.9085 40.8428 43.9085 40.8428 43.9434 40.8428C44.5722 40.8777 45.2011 41.2969 45.1312 42.4498C45.0962 43.6375 44.4325 44.0218 43.8037 43.9869Z" fill="#F15A2A"/>
<path d="M51.5591 42.0655C51.0351 41.8559 50.6858 41.6812 50.6858 41.3319C50.6858 41.1223 50.8604 40.9476 51.105 40.9476C51.105 40.9476 51.105 40.9476 51.1399 40.9476C51.3844 40.9476 51.5591 41.0874 51.6988 41.3668L51.7687 41.5066L52.5373 40.9825L52.5023 40.9127C52.2578 40.3537 51.8037 40.0742 51.2098 40.0742C51.1748 40.0742 51.1748 40.0742 51.1399 40.0742C50.7556 40.0742 50.4063 40.214 50.1617 40.4935C49.9172 40.738 49.8124 41.0524 49.8124 41.4018C49.8473 42.2053 50.4063 42.5546 50.8255 42.7293L50.9652 42.7991C51.4892 43.0437 51.8386 43.2184 51.8386 43.5328C51.8386 43.7074 51.8037 43.8472 51.6988 43.917C51.594 44.0219 51.4194 44.0568 51.2796 44.0568C50.8604 44.0568 50.5809 43.7773 50.4063 43.2184L50.3713 43.0786L49.6028 43.6026V43.6725C49.7775 44.4411 50.4412 45 51.2447 45H51.2796C52.1879 44.9651 52.7818 44.3712 52.7818 43.4978C52.677 42.6594 52.1181 42.3101 51.5591 42.0655Z" fill="#F15A2A"/>
<path d="M56.2751 39.8297L56.5197 42.869C56.5546 43.4629 56.3101 43.7773 55.7511 43.8472C55.1921 43.8821 54.9127 43.6026 54.8428 43.0088L54.5983 39.9695L53.655 40.0393L53.8996 43.0786C53.9694 44.1616 54.6332 44.7555 55.6114 44.7555C55.6812 44.7555 55.7511 44.7555 55.786 44.7555C56.869 44.6856 57.4978 43.9171 57.428 42.7992L57.2183 39.7599L56.2751 39.8297Z" fill="#F15A2A"/>
<path d="M60.2926 39.3756L58.511 39.6201L59.1398 44.3712L60.083 44.2664L59.8385 42.4149L60.6769 42.3101C61.1311 42.2402 61.5154 42.0655 61.725 41.7511C61.9346 41.4716 62.0394 41.0874 61.9695 40.6681C61.8996 40.2489 61.725 39.8996 61.4455 39.655C61.1311 39.4105 60.7468 39.3057 60.2926 39.3756ZM59.6988 41.5066L59.559 40.3887L60.3625 40.2839C60.7468 40.2489 60.9564 40.3887 60.9913 40.7729C61.0263 40.9476 60.9913 41.1223 60.9215 41.2271C60.8516 41.3319 60.7119 41.4018 60.5023 41.4367L59.6988 41.5066Z" fill="#F15A2A"/>
<path d="M64.5895 38.6769L62.9476 38.9913L62.8428 39.0262L63.6812 43.6376L63.7161 43.7424L64.6594 43.5677L64.31 41.7162L65.1485 41.5764C65.6026 41.5066 65.952 41.297 66.1616 40.9825C66.3712 40.6681 66.441 40.2839 66.3712 39.8646C66.1965 38.9913 65.5327 38.5371 64.5895 38.6769ZM64.1354 40.8428L63.9257 39.7249L64.7292 39.5852C64.9039 39.5502 65.0786 39.5852 65.1834 39.655C65.2882 39.7249 65.3581 39.8646 65.393 40.0393C65.4279 40.214 65.393 40.3887 65.3231 40.4935C65.2533 40.5983 65.1135 40.6681 64.9389 40.7031L64.1354 40.8428Z" fill="#F15A2A"/>
<path d="M68.9214 41.786L68.0131 38.083V37.9782L67.0698 38.1878L68.1877 42.7642V42.869L70.9825 42.2053L71.0873 42.1703L70.8777 41.297L68.9214 41.786Z" fill="#F15A2A"/>
<path d="M72.939 39.4804L73.463 36.6157L73.4979 36.4411L72.4848 36.7555L72.2053 38.6769L70.8778 37.2096L69.8997 37.524L72.0307 39.7598L72.6245 41.7162L73.5328 41.4716L72.939 39.4804Z" fill="#F15A2A"/>
<path d="M11 29.4192L12.8515 28.2664C13.3755 30.4323 14.4935 32.2839 16.869 32.2839C18.5109 32.2839 19.8384 31.3057 19.8384 29.2096C19.8384 27.1136 18.0218 26.2053 15.8559 25.1922C13.8297 24.214 12.048 22.8515 12.048 20.2664C12.048 17.6812 14.0044 15.8297 16.5895 15.8297C19.1048 15.8297 20.4323 17.0175 21.2358 18.7642L19.3843 19.917C18.7555 18.345 17.6725 17.8908 16.5895 17.8908C15.1572 17.8908 14.2489 18.9389 14.2489 20.0917C14.2489 22.0481 16.0306 22.8515 17.9869 23.7249C20.2576 24.7729 22.1441 26.1354 22.1441 29.035C22.1441 32.2489 19.9083 34.3101 16.869 34.3101C13.7598 34.345 11.4891 32.1092 11 29.4192Z" fill="#4999D4"/>
<path d="M35.6289 27.952H26.0219C26.1267 30.5371 27.4891 32.4236 29.8647 32.4236C31.7162 32.4236 32.6944 31.655 33.6027 29.8734L35.4193 30.6419C34.1616 33.1921 32.4848 34.31 29.8297 34.31C26.0568 34.31 23.8909 31.1659 23.8909 27.6026C23.8909 23.9694 26.0219 20.8603 29.8297 20.8603C33.4979 20.8603 35.6638 23.655 35.6638 27.0087V27.952H35.6289ZM33.4629 26.1004C33.1485 24.1441 31.9607 22.7817 29.8297 22.7817C28.1179 22.7817 26.6507 23.8646 26.1965 26.1004H33.4629Z" fill="#4999D4"/>
<path d="M37.9692 15.8297H40.1002V34.1354H37.9692V15.8297Z" fill="#4999D4"/>
<path d="M54.0393 27.952H44.4323C44.5371 30.5371 45.8995 32.4236 48.2751 32.4236C50.1266 32.4236 51.1048 31.655 52.0131 29.8734L53.8297 30.6419C52.572 33.1921 50.8952 34.31 48.2401 34.31C44.4672 34.31 42.3013 31.1659 42.3013 27.6026C42.3013 23.9694 44.4323 20.8603 48.2401 20.8603C51.9083 20.8603 54.0742 23.655 54.0742 27.0087V27.952H54.0393ZM51.8733 26.1004C51.5589 24.1441 50.3711 22.7817 48.2401 22.7817C46.5283 22.7817 45.0611 23.8646 44.607 26.1004H51.8733Z" fill="#4999D4"/>
<path d="M55.6462 27.6026C55.6462 24.1092 57.6375 20.8603 61.62 20.8603C64.2751 20.8603 66.1615 22.048 67.0698 24.4934L65.1484 25.2271C64.4847 23.655 63.3668 22.7467 61.62 22.7467C59.0698 22.7467 57.8821 24.8777 57.8821 27.5677C57.8821 30.2227 59.0698 32.3886 61.62 32.3886C63.3668 32.3886 64.4497 31.5153 65.1484 29.9083L67.0698 30.6419C66.1266 33.0524 64.2751 34.2751 61.62 34.2751C57.6375 34.345 55.6462 31.0961 55.6462 27.6026Z" fill="#4999D4"/>
<path d="M70.0043 30.1529V23.0262H67.8035V21.1048H70.0043V17.1922L72.1353 15.8297V21.1048H75.6288V23.0262H72.1353V30.3275C72.1353 31.8297 72.834 32.4585 73.9519 32.4585C74.441 32.4585 74.965 32.3887 75.4541 32.1092L76.0131 33.9258C75.3493 34.2751 74.5458 34.3799 73.7773 34.3799C71.5065 34.345 70.0043 33.0524 70.0043 30.1529Z" fill="#4999D4"/>
<path d="M76.7817 30.8166L77.2359 30.5721L77.69 30.3275L78.1442 30.083L78.5983 29.8384C78.7381 30.2227 78.8778 30.5721 79.0525 30.8865C79.2272 31.2009 79.4368 31.4804 79.6813 31.69C79.9258 31.8996 80.2053 32.1092 80.5547 32.214C80.8691 32.3537 81.2534 32.3887 81.6726 32.3887C81.987 32.3887 82.2665 32.3537 82.511 32.2489C82.7555 32.1791 83.0001 32.0393 83.1748 31.8646C83.3494 31.69 83.4892 31.4804 83.594 31.2358C83.6988 30.9913 83.7337 30.7118 83.7337 30.3974C83.7337 30.083 83.6638 29.8384 83.5241 29.5939C83.3844 29.3494 83.1748 29.1398 82.9302 28.9651C82.6857 28.7904 82.3713 28.6157 82.0219 28.4411C81.6726 28.2664 81.2883 28.1266 80.904 27.9869C80.4499 27.8122 79.9957 27.6376 79.6114 27.428C79.2272 27.2184 78.8778 26.9738 78.5983 26.6594C78.3189 26.345 78.0743 26.0306 77.9346 25.6463C77.7599 25.262 77.69 24.8079 77.69 24.2839C77.69 23.7598 77.7948 23.3057 77.9695 22.8515C78.1442 22.3974 78.4237 22.048 78.773 21.7336C79.1224 21.4192 79.5066 21.1747 79.9608 21.0349C80.4149 20.8603 80.939 20.7904 81.463 20.7904C81.8822 20.7904 82.3014 20.8253 82.6507 20.9301C83.035 21 83.3494 21.1398 83.6638 21.3144C83.9783 21.4891 84.2577 21.6987 84.5372 21.9432C84.7817 22.1878 85.0263 22.5022 85.2359 22.8166L84.8865 23.131L84.5372 23.4454L84.1879 23.7598L83.8385 24.0742C83.6638 23.8297 83.4892 23.6201 83.3145 23.4454C83.1398 23.2708 82.9302 23.131 82.7555 23.0262C82.5809 22.9214 82.3363 22.8515 82.1267 22.7817C81.9171 22.7467 81.6726 22.7118 81.428 22.7118C81.1835 22.7118 80.9739 22.7467 80.7643 22.8166C80.5547 22.8865 80.38 22.9913 80.2053 23.131C80.0307 23.2708 79.9258 23.4454 79.821 23.6201C79.7162 23.8297 79.6813 24.0393 79.6813 24.2839C79.6813 24.5284 79.7162 24.738 79.856 24.9476C79.9608 25.1572 80.1355 25.3319 80.3451 25.5066C80.5547 25.6812 80.8691 25.8559 81.2534 26.0306C81.6376 26.2053 82.0569 26.3799 82.5809 26.5895C83.0001 26.7293 83.4193 26.9389 83.8036 27.1485C84.1879 27.3581 84.5372 27.6376 84.8167 27.917C85.0962 28.1965 85.3407 28.5808 85.5154 28.9651C85.6901 29.3494 85.7599 29.8035 85.7599 30.2926C85.7599 30.9214 85.6551 31.4454 85.4455 31.9345C85.2359 32.4236 84.9564 32.8428 84.6071 33.1922C84.2577 33.5415 83.8036 33.786 83.2796 33.9607C82.7555 34.1354 82.1966 34.2402 81.5678 34.2402C80.8341 34.2402 80.2053 34.1354 79.6464 33.9258C79.0874 33.7162 78.6333 33.4367 78.2141 33.1223C77.7948 32.8079 77.4804 32.3887 77.2359 31.9694C77.0962 31.69 76.8865 31.2358 76.7817 30.8166Z" fill="#4999D4"/>
</svg>
